####
#
#	OBJ File Generated by LightWave3D
#	LightWave3D OBJ Export v2.3
#
####
o Arrow test 1.obj
mtllib Arrow test 1.mtl
g default
v -2.18 0 0.06
v -2.18 0 -0
v -2.18 0 -0.06
v 0 0.26 -0
v 0 0.76 -0
v 0.06 0.26 0.56
v 0.06 0.26 -0.56
v 0.06 0.54 0.56
v 0.06 0.54 -0.56
v 1.14 0 1.88
v 1.14 0 -1.88
v 1.29081 -0.06 1.73814
v 1.29081 -0.06 -1.73814
v 1.29081 0.14 1.73814
v 1.29081 0.14 -1.73814
v 1.42 0.26 0.46
v 1.42 0.26 -0
v 1.42 0.26 -0.46
v 2.07163 -0.38 0.396279
v 2.07163 -0.38 -0.396279
v 2.07163 0.78 0.456279
v 2.07163 0.78 -0.456279
v 2.08 -0.38 -0
v 2.08 0.78 -0
v 2.09 0.78 0.46
v 2.09 0.78 -0
v 2.09 0.78 -0.46
vn -0.998939 -0.046047 -0
vn -0.893402 -0.449258 3.34723e-09
vn -0.733218 0.679994 -0
vn -0.619967 -0.126695 0.774331
vn -0.619967 -0.126695 -0.774331
vn -0.548549 0.836019 -0.0128926
vn -0.53073 0.494662 0.688212
vn -0.53073 0.494662 -0.688212
vn -0.403663 0.691946 0.598554
vn -0.398302 0.127854 -0.9083
vn -0.373916 -0.811998 0.448158
vn -0.373916 -0.811998 -0.448158
vn -0.0224562 -0.984758 -0.172475
vn 0.156024 0.473322 0.866962
vn 0.175035 -0.0930079 0.980159
vn 0.175035 -0.0930078 -0.980159
vn 0.214637 -0.976694 -0
vn 0.272575 -0.837214 0.474106
vn 0.272575 -0.837214 -0.474106
vn 0.348123 0.661523 0.664228
vn 0.348123 0.661523 -0.664228
vn 0.37852 -0.740212 0.555705
vn 0.37852 -0.740212 -0.555705
vn 0.689257 -0.324878 0.647594
vn 0.726514 -0.684915 -0.0553933
vn 0.802927 0.486984 -0.343735
vn 0.993847 0.110301 -0.010118
g group_yellow
usemtl yellow
s 1
f 24//6 22//26 15//21
f 15//21 11//16 3//5
f 24//6 3//5 2//1
f 24//6 15//21 3//5
f 13//19 20//25 23//13
f 3//5 11//16 13//19
f 3//5 13//19 23//13
f 2//1 3//5 23//13
f 7//12 17//17 4//2
f 7//12 18//23 17//17
f 18//23 26//27 17//17
f 27//10 26//27 18//23
f 7//12 9//8 18//23
f 9//8 27//10 18//23
f 9//8 7//12 4//2
f 5//3 9//8 4//2
f 26//27 27//10 9//8
f 5//3 26//27 9//8
f 17//17 5//3 4//2
f 26//27 5//3 17//17
f 11//16 15//21 13//19
f 13//19 15//21 20//25
f 15//21 22//26 20//25
f 22//26 27//10 20//25
f 26//27 24//6 20//25
f 24//6 27//10 20//25
f 20//25 22//26 23//13
f 27//10 22//26 20//25
f 21//9 24//6 14//20
f 14//20 1//4 10//15
f 14//20 24//6 1//4
f 24//6 2//1 1//4
f 12//18 23//13 19//24
f 10//15 1//4 12//18
f 1//4 2//1 23//13
f 12//18 1//4 23//13
f 4//2 17//17 6//11
f 17//17 16//22 6//11
f 17//17 26//27 16//22
f 26//27 25//14 16//22
f 16//22 8//7 6//11
f 25//14 8//7 16//22
f 8//7 5//3 4//2
f 8//7 4//2 6//11
f 26//27 5//3 8//7
f 25//14 26//27 8//7
f 5//3 17//17 4//2
f 5//3 26//27 17//17
f 14//20 10//15 12//18
f 14//20 12//18 19//24
f 21//9 14//20 19//24
f 25//14 21//9 19//24
f 24//6 21//9 25//14
f 21//9 24//6 23//13
f 24//6 26//27 23//13
f 23//13 26//27 19//24
v -1.3821 0.0423928 0.0001582
v -1.3821 0.0423928 -0.0001582
v -1.3499 0.171514 0.0001582
v -1.3499 0.171514 -0.0001582
v -1.33476 0.0482064 0.12702
v -1.33476 0.0482064 -0.12702
v -1.30364 0.172927 0.12702
v -1.30364 0.172927 -0.12702
v -1.22519 0.303462 0.0001582
v -1.22519 0.303462 -0.0001582
v -1.19594 0.0652511 0.245237
v -1.19594 0.0652511 -0.245237
v -1.18318 0.30038 0.12702
v -1.18318 0.30038 -0.12702
v -1.16804 0.177073 0.245237
v -1.16804 0.177073 -0.245237
v -1.06004 0.291344 0.245237
v -1.06004 0.291344 -0.245237
v -1.01647 0.429247 0.0001582
v -1.01647 0.429247 -0.0001582
v -0.981583 0.421879 0.12702
v -0.981583 0.421879 -0.12702
v -0.975109 0.0923653 0.346752
v -0.975109 0.0923653 -0.346752
v -0.952335 0.183668 0.346752
v -0.952335 0.183668 -0.346752
v -0.879292 0.400276 0.245237
v -0.879292 0.400276 -0.245237
v -0.864152 0.276969 0.346752
v -0.864152 0.276969 -0.346752
v -0.737981 0.540295 0.0001582
v -0.737981 0.540295 -0.0001582
v -0.71657 0.365912 0.346752
v -0.71657 0.365912 -0.346752
v -0.712581 0.529143 0.12702
v -0.712581 0.529143 -0.12702
v -0.687321 0.127701 0.424648
v -0.687321 0.127701 -0.424648
v -0.671217 0.192262 0.424648
v -0.671217 0.192262 -0.424648
v -0.638111 0.496447 0.245237
v -0.638111 0.496447 -0.245237
v -0.608862 0.258236 0.424648
v -0.608862 0.258236 -0.424648
v -0.519646 0.444435 0.346752
v -0.519646 0.444435 -0.346752
v -0.504506 0.321128 0.424648
v -0.504506 0.321128 -0.424648
v -0.408689 0.629039 0.0001582
v -0.408689 0.629039 -0.0001582
v -0.394509 0.614864 0.12702
v -0.394509 0.614864 -0.12702
v -0.36526 0.376652 0.424648
v -0.36526 0.376652 -0.424648
v -0.352935 0.573302 0.245237
v -0.352935 0.573302 -0.245237
v -0.352184 0.168851 0.473615
v -0.352184 0.168851 -0.473615
v -0.343848 0.20227 0.473615
v -0.343848 0.20227 -0.473615
v -0.336011 0.138441 0.473615
v -0.336011 0.138441 -0.473615
v -0.311571 0.236421 0.473615
v -0.311571 0.236421 -0.473615
v -0.296431 0.113114 0.473615
v -0.296431 0.113114 -0.473615
v -0.286801 0.507187 0.346752
v -0.286801 0.507187 -0.346752
v -0.257552 0.268976 0.473615
v -0.257552 0.268976 -0.473615
v -0.236141 0.0945935 0.473615
v -0.236141 0.0945935 -0.473615
v -0.200614 0.421025 0.424648
v -0.200614 0.421025 -0.424648
v -0.185473 0.297717 0.473615
v -0.185473 0.297717 -0.473615
v -0.15925 0.0841433 0.473615
v -0.15925 0.0841433 -0.473615
v -0.100246 0.320686 0.473615
v -0.100246 0.320686 -0.473615
v -0.0709976 0.0824752 0.473615
v -0.0709976 0.0824752 -0.473615
v -0.051036 0.689432 0.0001582
v -0.051036 0.689432 -0.0001582
v -0.0490428 0.673198 0.12702
v -0.0490428 0.673198 -0.12702
v -0.0431989 0.625603 0.245237
v -0.0431989 0.625603 -0.245237
v -0.0339026 0.549891 0.346752
v -0.0339026 0.549891 -0.346752
v -0.0217874 0.451221 0.424648
v -0.0217874 0.451221 -0.424648
v -0.00767897 0.336317 0.473615
v -0.00767897 0.336317 -0.473615
v 0.00746124 0.21301 0.490316
v 0.00746124 0.21301 -0.490316
v 0.0226014 0.0897027 0.473615
v 0.0226014 0.0897027 -0.473615
v 0.0859201 0.343545 0.473615
v 0.0859201 0.343545 -0.473615
v 0.115169 0.105334 0.473615
v 0.115169 0.105334 -0.473615
v 0.159032 0.465184 0.424648
v 0.159032 0.465184 -0.424648
v 0.174172 0.341876 0.473615
v 0.174172 0.341876 -0.473615
v 0.200396 0.128302 0.473615
v 0.200396 0.128302 -0.473615
v 0.221815 0.569637 0.346752
v 0.221815 0.569637 -0.346752
v 0.251063 0.331426 0.473615
v 0.251063 0.331426 -0.473615
v 0.26999 0.649787 0.245237
v 0.26999 0.649787 -0.245237
v 0.272475 0.157044 0.473615
v 0.272475 0.157044 -0.473615
v 0.300274 0.700172 0.12702
v 0.300274 0.700172 -0.12702
v 0.310603 0.717357 0.0001582
v 0.310603 0.717357 -0.0001582
v 0.311353 0.312906 0.473615
v 0.311353 0.312906 -0.473615
v 0.326494 0.189599 0.473615
v 0.326494 0.189599 -0.473615
v 0.350934 0.287578 0.473615
v 0.350934 0.287578 -0.473615
v 0.358771 0.22375 0.473615
v 0.358771 0.22375 -0.473615
v 0.367107 0.257169 0.473615
v 0.367107 0.257169 -0.473615
vt -5.96046e-08 0.517449
vt -5.96046e-08 0.731939
vt 0 0.363551
vt 0 0.449429
vt 0.0225907 0.379734
vt 0.0234609 0.419892
vt 0.0275665 0.463275
vt 0.0388934 0.527297
vt 0.0450593 0.425778
vt 0.0523729 0.468036
vt 0.0714209 0.527749
vt 0.0832241 0.679082
vt 0.129883 0.641628
vt 0.310995 0.740651
vt 0.371402 0.806477
vt 0.453676 0.619791
vt 0.459835 0.676555
vt 0.476872 0.619011
vt 0.5 0.606361
vt 0.5 0.654944
vt 0.5 0.785402
vt 0.522012 0.580284
vt 0.533606 0.607455
vt 0.540651 0.457053
vt 0.541025 0.445079
vt 0.541383 0.467045
vt 0.541848 0.539141
vt 0.54254 0.431055
vt 0.543288 0.474976
vt 0.545334 0.414819
vt 0.546542 0.480557
vt 0.549668 0.396187
vt 0.551451 0.483191
vt 0.555949 0.375072
vt 0.556314 0.543586
vt 0.55847 0.481832
vt 0.568213 0.474822
vt 0.568615 0.653656
vt 0.570696 0.409395
vt 0.576718 0.327116
vt 0.581341 0.459863
vt 0.584198 0.536684
vt 0.592379 0.303448
vt 0.598178 0.43469
vt 0.611345 0.284379
vt 0.617828 0.399243
vt 0.631266 0.274313
vt 0.637148 0.358393
vt 0.643312 0.49552
vt 0.647493 0.27661
vt 0.651043 0.320563
vt 0.654948 0.292321
vt 0.747346 0.399287
vt 0.768955 0.679283
vt 0.831849 0.33026
vt 0.867727 0.290644
vt 0.875183 0.251159
vt 0.928058 0.4809
vt 0.955867 0.413834
vt 0.964291 0.370729
vt 0.965977 0.32778
vt 1 0.517449
vt 1 0.731939
vt 1 0.40518
vt 1 0.449429
vn -0.915501 0.228364 0.331223
vn -0.915501 0.228364 -0.331223
vn -0.835373 0.460978 0.299418
vn -0.835373 0.460978 -0.299418
vn -0.80823 0.201606 0.55328
vn -0.80823 0.201606 -0.55328
vn -0.74789 0.419363 0.514583
vn -0.74789 0.419363 -0.514583
vn -0.611025 0.760204 0.220766
vn -0.611025 0.760204 -0.220766
vn -0.570363 0.713369 0.407174
vn -0.570363 0.713369 -0.407174
vn -0.544012 0.135699 0.828032
vn -0.544012 0.135699 -0.828032
vn -0.524616 0.303603 0.795364
vn -0.524616 0.303603 -0.795363
vn -0.44678 0.565268 0.69344
vn -0.44678 0.565268 -0.69344
vn -0.437935 0.882459 0.171694
vn -0.437935 0.882459 -0.171694
vn -0.418918 0.845829 0.330276
vn -0.418918 0.845829 -0.330276
vn -0.353089 0.716384 0.601766
vn -0.353089 0.716384 -0.601766
vn -0.34852 0.0869352 0.933261
vn -0.34852 0.0869352 -0.933261
vn -0.344834 0.203713 0.916292
vn -0.344834 0.203713 -0.916292
vn -0.316903 0.4051 0.857594
vn -0.316903 0.4051 -0.857594
vn -0.31242 0.9388 0.145079
vn -0.31242 0.9388 -0.145079
vn -0.302433 0.909628 0.284799
vn -0.302433 0.909628 -0.284799
vn -0.267899 0.546483 0.793465
vn -0.267899 0.546483 -0.793465
vn -0.265181 0.799507 0.538951
vn -0.265181 0.799507 -0.538951
vn -0.211714 0.968394 0.131875
vn -0.211714 0.968394 -0.131875
vn -0.210406 0.636301 0.742193
vn -0.210406 0.636301 -0.742193
vn -0.209514 0.125054 0.969776
vn -0.209514 0.125054 -0.969776
vn -0.209051 0.0521458 0.976513
vn -0.209051 0.0521458 -0.976513
vn -0.206074 0.943017 0.261252
vn -0.206074 0.943017 -0.261252
vn -0.200817 0.258415 0.944931
vn -0.200817 0.258415 -0.944931
vn -0.184211 0.844002 0.503714
vn -0.184211 0.844002 -0.503714
vn -0.17776 0.364174 0.914209
vn -0.17776 0.364174 -0.914209
vn -0.149812 0.687539 0.710526
vn -0.149812 0.687539 -0.710526
vn -0.144845 0.439262 0.886605
vn -0.144845 0.439262 -0.886605
vn -0.120869 0.984399 0.127866
vn -0.120869 0.984399 -0.127866
vn -0.117873 0.96 0.253979
vn -0.117873 0.96 -0.253979
vn -0.106068 0.863857 0.492444
vn -0.106068 0.863857 -0.492444
vn -0.105526 0.485097 0.86807
vn -0.105526 0.485097 -0.86807
vn -0.0993323 0.0595688 0.99327
vn -0.0993323 0.0595688 -0.99327
vn -0.0971901 0.125503 0.987321
vn -0.0971901 0.125503 -0.987321
vn -0.088256 0.181284 0.979463
vn -0.088256 0.181284 -0.979463
vn -0.0870403 0.708886 0.699932
vn -0.0870403 0.708886 -0.699932
vn -0.0802303 0.00865665 0.996739
vn -0.0802303 0.00865665 -0.996739
vn -0.0763587 0.988864 0.127738
vn -0.0763587 0.988864 -0.127738
vn -0.0744698 0.964402 0.253737
vn -0.0744698 0.964402 -0.253737
vn -0.0735967 0.223619 0.971894
vn -0.0735967 0.223619 -0.971894
vn -0.0670238 0.867975 0.492064
vn -0.0670238 0.867975 -0.492064
vn -0.0618594 0.503805 0.8616
vn -0.0618594 0.503805 -0.8616
vn -0.055014 0.712445 0.699568
vn -0.055014 0.712445 -0.699568
vn -0.0544749 0.250719 0.966526
vn -0.0544749 0.250719 -0.966526
vn -0.0398887 -0.0398895 0.998408
vn -0.0398887 -0.0398895 -0.998408
vn -0.0391084 0.506464 0.861374
vn -0.0391084 0.506464 -0.861374
vn -0.0321408 0.261766 0.964596
vn -0.0321408 0.261766 -0.964596
vn -0.0313373 -0.0713521 0.996959
vn -0.0313373 -0.0713521 -0.996959
vn -0.0206667 -0.0978212 0.994989
vn -0.0206667 -0.0978212 -0.994989
vn -0.012742 0.21752 0.975973
vn -0.012742 0.21752 -0.975973
vn -0.008631 -0.117536 0.993031
vn -0.008631 -0.117536 -0.993031
vn 2.34021e-09 -1.59134e-08 1
vn 2.34021e-09 -1.59134e-08 -1
vn 0.00394808 -0.129248 0.991605
vn 0.00394808 -0.129248 -0.991605
vn 0.00863101 0.117536 0.993031
vn 0.00863101 0.117536 -0.993031
vn 0.0162379 -0.132247 0.991084
vn 0.0162379 -0.132247 -0.991084
vn 0.0206667 0.0978211 0.994989
vn 0.0206667 0.0978211 -0.994989
vn 0.027437 -0.126364 0.991605
vn 0.027437 -0.126364 -0.991605
vn 0.0313373 0.0713521 0.996959
vn 0.0313373 0.0713521 -0.996959
vn 0.0368092 -0.111957 0.993031
vn 0.0368092 -0.111957 -0.993031
vn 0.0398887 0.0398895 0.998408
vn 0.0398887 0.0398895 -0.998408
vn 0.0437179 -0.0899157 0.994989
vn 0.0437179 -0.0899157 -0.994989
vn 0.0457012 0.0056114 0.998939
vn 0.0457012 0.0056114 -0.998939
vn 0.0476681 -0.0616515 0.996959
vn 0.0476681 -0.0616515 -0.996959
vn 0.048354 -0.0290547 0.998408
vn 0.048354 -0.0290547 -0.998408
g group_Glass
usemtl Glass
s 1
f 113/17/89 111//87 147/16/105 145/18/107
f 31/9/31 35/6/35 33/5/33 29//29
f 31/9/31 37/10/37 41/7/39 35/6/35
f 37/10/37 47/11/47 49/8/49 41/7/39
f 47/11/47 59/13/59 63/12/61 49/8/49
f 59/13/59 77/14/67 79/15/75 63/12/61
f 77/14/67 111//87 113/17/89 79/15/75
f 115/20/91 113/17/89 145/18/107 141/19/111
f 35/6/35 43//43 39/3/41 33/5/33
f 35/6/35 41/7/39 45/4/45 43//43
f 41/7/39 49/8/49 55/1/51 45/4/45
f 49/8/49 63/12/61 69/2/65 55/1/51
f 63/12/61 79/15/75 83/21/79 69/63/65
f 79/15/75 113/17/89 115/20/91 83/21/79
f 117/23/101 115/20/91 141/19/111 137/22/115
f 43/64/43 53/60/55 51/61/53 39//41
f 43/64/43 45/65/45 57/59/57 53/60/55
f 45/65/45 55/62/51 61/58/63 57/59/57
f 55/62/51 69/63/65 73/54/69 61/58/63
f 69/63/65 83/21/79 95/38/83 73/54/69
f 83/21/79 115/20/91 117/23/101 95/38/83
f 119/35/113 117/23/101 137/22/115 131/27/121
f 53/60/55 67/56/71 65/57/73 51/61/53
f 53/60/55 57/59/57 71/55/77 67/56/71
f 57/59/57 61/58/63 75/53/81 71/55/77
f 61/58/63 73/54/69 81/49/85 75/53/81
f 73/54/69 95/38/83 101/42/93 81/49/85
f 95/38/83 117/23/101 119/35/113 101/42/93
f 121/37/123 119/35/113 131/27/121 127/36/129
f 67/56/71 87/51/95 85/52/103 65/57/73
f 67/56/71 71/55/77 91/48/97 87/51/95
f 71/55/77 75/53/81 97/46/99 91/48/97
f 75/53/81 81/49/85 103/44/109 97/46/99
f 81/49/85 101/42/93 107/41/117 103/44/109
f 101/42/93 119/35/113 121/37/123 107/41/117
f 121/37/123 127/36/129 123/39/133
f 127/36/129 133/33/137 123/39/133
f 133/33/137 139/31/141 123/39/133
f 139/31/141 149/29/145 123/39/133
f 149/29/145 153/26/149 123/39/133
f 153/26/149 157/24/153 123/39/133
f 123/39/133 157/24/153 155/25/157
f 123/39/133 155/25/157 151/28/155
f 123/39/133 151/28/155 143/30/151
f 123/39/133 143/30/151 135/32/147
f 123/39/133 135/32/147 129/34/143
f 123/39/133 129/34/143 125//139
f 109/40/135 123/39/133 125//139
f 105/43/131 123/39/133 109/40/135
f 99/45/127 123/39/133 105/43/131
f 93/47/125 123/39/133 99/45/127
f 89/50/119 123/39/133 93/47/125
f 85/52/103 123/39/133 89/50/119
f 85/52/103 87/51/95 123/39/133
f 87/51/95 91/48/97 123/39/133
f 91/48/97 97/46/99 123/39/133
f 97/46/99 103/44/109 123/39/133
f 103/44/109 107/41/117 123/39/133
f 107/41/117 121/37/123 123/39/133
f 146/16/104 110//86 112/17/88 144/18/106
f 32/5/32 34/6/34 30/9/30 28//28
f 40/7/38 36/10/36 30/9/30 34/6/34
f 48/8/48 46/11/46 36/10/36 40/7/38
f 62/12/60 58/13/58 46/11/46 48/8/48
f 78/15/74 76/14/66 58/13/58 62/12/60
f 112/17/88 110//86 76/14/66 78/15/74
f 144/18/106 112/17/88 114/20/90 140/19/110
f 38/3/40 42//42 34/6/34 32/5/32
f 44/4/44 40/7/38 34/6/34 42//42
f 54/1/50 48/8/48 40/7/38 44/4/44
f 68/2/64 62/12/60 48/8/48 54/1/50
f 82/21/78 78/15/74 62/12/60 68/63/64
f 114/20/90 112/17/88 78/15/74 82/21/78
f 140/19/110 114/20/90 116/23/100 136/22/114
f 50/61/52 52/60/54 42/64/42 38//40
f 56/59/56 44/65/44 42/64/42 52/60/54
f 60/58/62 54/62/50 44/65/44 56/59/56
f 72/54/68 68/63/64 54/62/50 60/58/62
f 94/38/82 82/21/78 68/63/64 72/54/68
f 116/23/100 114/20/90 82/21/78 94/38/82
f 136/22/114 116/23/100 118/35/112 130/27/120
f 64/57/72 66/56/70 52/60/54 50/61/52
f 70/55/76 56/59/56 52/60/54 66/56/70
f 74/53/80 60/58/62 56/59/56 70/55/76
f 80/49/84 72/54/68 60/58/62 74/53/80
f 100/42/92 94/38/82 72/54/68 80/49/84
f 118/35/112 116/23/100 94/38/82 100/42/92
f 130/27/120 118/35/112 120/37/122 126/36/128
f 84/52/102 86/51/94 66/56/70 64/57/72
f 90/48/96 70/55/76 66/56/70 86/51/94
f 96/46/98 74/53/80 70/55/76 90/48/96
f 102/44/108 80/49/84 74/53/80 96/46/98
f 106/41/116 100/42/92 80/49/84 102/44/108
f 120/37/122 118/35/112 100/42/92 106/41/116
f 126/36/128 120/37/122 122/39/132
f 132/33/136 126/36/128 122/39/132
f 138/31/140 132/33/136 122/39/132
f 148/29/144 138/31/140 122/39/132
f 152/26/148 148/29/144 122/39/132
f 156/24/152 152/26/148 122/39/132
f 156/24/152 122/39/132 154/25/156
f 154/25/156 122/39/132 150/28/154
f 150/28/154 122/39/132 142/30/150
f 142/30/150 122/39/132 134/32/146
f 134/32/146 122/39/132 128/34/142
f 128/34/142 122/39/132 124//138
f 122/39/132 108/40/134 124//138
f 122/39/132 104/43/130 108/40/134
f 122/39/132 98/45/126 104/43/130
f 122/39/132 92/47/124 98/45/126
f 122/39/132 88/50/118 92/47/124
f 122/39/132 84/52/102 88/50/118
f 86/51/94 84/52/102 122/39/132
f 90/48/96 86/51/94 122/39/132
f 96/46/98 90/48/96 122/39/132
f 102/44/108 96/46/98 122/39/132
f 106/41/116 102/44/108 122/39/132
f 120/37/122 106/41/116 122/39/132
